STARTFONT 2.1
FONT -misc-stlarch-Medium-R-Normal--14-120-100-100-C-100-ISO10646-1
SIZE 1 100 100
FONTBOUNDINGBOX 7 16 0 -4
STARTPROPERTIES 17
POINT_SIZE 120
PIXEL_SIZE 14
RESOLUTION_X 100
RESOLUTION_Y 100
FONT_ASCENT 12
FONT_DESCENT 4
AVERAGE_WIDTH 100
SPACING "C"
_XMBDFED_INFO "Edited with xmbdfed 4.7."
FOUNDRY "misc"
FAMILY_NAME "stlarch"
WEIGHT_NAME "Medium"
SLANT "R"
SETWIDTH_NAME "Normal"
ADD_STYLE_NAME ""
CHARSET_REGISTRY "ISO10646"
CHARSET_ENCODING "1"
ENDPROPERTIES
CHARS 96
STARTCHAR 0xE000
ENCODING 57344
SWIDTH 5040 0
DWIDTH 7 0
BBX 7 16 0 -4
BITMAP
00
00
00
00
00
00
00
00
00
00
00
00
00
00
00
00
ENDCHAR
STARTCHAR 0xE001
ENCODING 57345
SWIDTH 5040 0
DWIDTH 7 0
BBX 7 16 0 -4
BITMAP
00
00
00
00
18
7E
42
5A
5A
5A
42
7E
00
00
00
00
ENDCHAR
STARTCHAR 0xE002
ENCODING 57346
SWIDTH 5040 0
DWIDTH 7 0
BBX 7 16 0 -4
BITMAP
00
00
00
00
00
00
00
00
1E
00
0C
0C
00
00
00
00
ENDCHAR
STARTCHAR 0xE003
ENCODING 57347
SWIDTH 5040 0
DWIDTH 7 0
BBX 7 16 0 -4
BITMAP
00
00
00
00
00
00
7E
00
3C
00
18
18
00
00
00
00
ENDCHAR
STARTCHAR 0xE004
ENCODING 57348
SWIDTH 5040 0
DWIDTH 7 0
BBX 7 16 0 -4
BITMAP
00
00
00
00
7E
00
7E
00
3C
00
18
18
00
00
00
00
ENDCHAR
STARTCHAR 0xE005
ENCODING 57349
SWIDTH 5040 0
DWIDTH 7 0
BBX 7 16 0 -4
BITMAP
00
00
00
00
3C
66
7E
66
66
66
66
3C
00
00
00
00
ENDCHAR
STARTCHAR 0xE006
ENCODING 57350
SWIDTH 5040 0
DWIDTH 7 0
BBX 7 16 0 -4
BITMAP
00
00
00
00
00
3C
66
5A
5A
66
3C
42
00
00
00
00
ENDCHAR
STARTCHAR 0xE007
ENCODING 57351
SWIDTH 5040 0
DWIDTH 7 0
BBX 7 16 0 -4
BITMAP
00
00
00
00
3C
66
66
66
66
7E
66
3C
00
00
00
00
ENDCHAR
STARTCHAR 0xE008
ENCODING 57352
SWIDTH 5040 0
DWIDTH 7 0
BBX 7 16 0 -4
BITMAP
00
00
00
00
00
7E
5A
42
7E
5A
42
7E
00
00
00
00
ENDCHAR
STARTCHAR 0xE009
ENCODING 57353
SWIDTH 5040 0
DWIDTH 7 0
BBX 7 16 0 -4
BITMAP
00
00
00
00
00
18
3C
3C
18
3C
7E
7E
00
00
00
00
ENDCHAR
STARTCHAR 0xE00A
ENCODING 57354
SWIDTH 5040 0
DWIDTH 7 0
BBX 7 16 0 -4
BITMAP
00
00
00
00
12
38
3A
28
2A
44
44
38
00
00
00
00
ENDCHAR
STARTCHAR 0xE00B
ENCODING 57355
SWIDTH 5040 0
DWIDTH 7 0
BBX 7 16 0 -4
BITMAP
00
00
00
00
00
0A
14
28
50
28
14
0A
00
00
00
00
ENDCHAR
STARTCHAR 0xE00C
ENCODING 57356
SWIDTH 5040 0
DWIDTH 7 0
BBX 7 16 0 -4
BITMAP
00
00
00
00
00
00
00
02
02
0A
0A
0A
00
00
00
00
ENDCHAR
STARTCHAR 0xE00D
ENCODING 57357
SWIDTH 5040 0
DWIDTH 7 0
BBX 7 16 0 -4
BITMAP
00
00
00
00
00
02
02
0A
0A
2A
2A
2A
00
00
00
00
ENDCHAR
STARTCHAR 0xE00E
ENCODING 57358
SWIDTH 5040 0
DWIDTH 7 0
BBX 7 16 0 -4
BITMAP
00
00
00
00
00
78
44
72
4A
6A
7E
00
00
00
00
00
ENDCHAR
STARTCHAR 0xE00F
ENCODING 57359
SWIDTH 5040 0
DWIDTH 7 0
BBX 7 16 0 -4
BITMAP
00
00
00
00
00
66
5A
3C
3C
5A
66
00
00
00
00
00
ENDCHAR
STARTCHAR 0xE010
ENCODING 57360
SWIDTH 5040 0
DWIDTH 7 0
BBX 7 16 0 -4
BITMAP
00
00
00
20
50
50
20
00
00
00
00
00
00
00
00
00
ENDCHAR
STARTCHAR 0xE011
ENCODING 57361
SWIDTH 5040 0
DWIDTH 7 0
BBX 7 16 0 -4
BITMAP
00
00
00
00
00
18
1E
18
1E
18
3C
18
00
00
00
00
ENDCHAR
STARTCHAR 0xE012
ENCODING 57362
SWIDTH 5040 0
DWIDTH 7 0
BBX 7 16 0 -4
BITMAP
00
00
00
00
3C
42
42
42
7E
7E
7E
7E
00
00
00
00
ENDCHAR
STARTCHAR 0xE013
ENCODING 57363
SWIDTH 5040 0
DWIDTH 7 0
BBX 7 16 0 -4
BITMAP
00
00
00
00
00
42
3C
3C
3C
3C
42
00
00
00
00
00
ENDCHAR
STARTCHAR 0xE014
ENCODING 57364
SWIDTH 5040 0
DWIDTH 7 0
BBX 7 16 0 -4
BITMAP
00
00
00
00
1C
1C
00
3C
1C
1C
1C
3E
00
00
00
00
ENDCHAR
STARTCHAR 0xE015
ENCODING 57365
SWIDTH 5040 0
DWIDTH 7 0
BBX 7 16 0 -4
BITMAP
00
00
00
04
08
18
30
3E
7C
0C
18
10
20
00
00
00
ENDCHAR
STARTCHAR 0xE016
ENCODING 57366
SWIDTH 5040 0
DWIDTH 7 0
BBX 7 16 0 -4
BITMAP
00
00
00
00
00
3C
6E
6E
62
7E
3C
00
00
00
00
00
ENDCHAR
STARTCHAR 0xE017
ENCODING 57367
SWIDTH 5040 0
DWIDTH 7 0
BBX 7 16 0 -4
BITMAP
00
00
00
00
00
18
2C
6E
62
3C
18
00
00
00
00
00
ENDCHAR
STARTCHAR 0xE018
ENCODING 57368
SWIDTH 5040 0
DWIDTH 7 0
BBX 7 16 0 -4
BITMAP
00
00
00
00
00
3C
6E
7C
78
7E
3C
00
00
00
00
00
ENDCHAR
STARTCHAR 0xE019
ENCODING 57369
SWIDTH 5040 0
DWIDTH 7 0
BBX 7 16 0 -4
BITMAP
00
00
00
00
00
18
18
3C
3C
66
66
42
00
00
00
00
ENDCHAR
STARTCHAR 0xE01A
ENCODING 57370
SWIDTH 5040 0
DWIDTH 7 0
BBX 7 16 0 -4
BITMAP
00
00
00
00
00
3C
6E
FC
F8
FC
7E
3C
00
00
00
00
ENDCHAR
STARTCHAR 0xE01B
ENCODING 57371
SWIDTH 5040 0
DWIDTH 7 0
BBX 7 16 0 -4
BITMAP
00
00
00
00
00
50
28
14
0A
14
28
50
00
00
00
00
ENDCHAR
STARTCHAR 0xE01C
ENCODING 57372
SWIDTH 5040 0
DWIDTH 7 0
BBX 7 16 0 -4
BITMAP
00
00
00
18
14
92
54
38
54
92
14
18
00
00
00
00
ENDCHAR
STARTCHAR 0xE01D
ENCODING 57373
SWIDTH 5040 0
DWIDTH 7 0
BBX 7 16 0 -4
BITMAP
00
00
00
00
3C
7E
42
52
4A
52
42
3C
00
00
00
00
ENDCHAR
STARTCHAR 0xE01E
ENCODING 57374
SWIDTH 5040 0
DWIDTH 7 0
BBX 7 16 0 -4
BITMAP
00
00
00
00
3C
7E
42
5A
42
5A
42
3C
00
00
00
00
ENDCHAR
STARTCHAR 0xE01F
ENCODING 57375
SWIDTH 5040 0
DWIDTH 7 0
BBX 7 16 0 -4
BITMAP
00
00
00
00
00
08
4C
2A
1C
2A
4C
08
00
00
00
00
ENDCHAR
STARTCHAR 0xE020
ENCODING 57376
SWIDTH 5040 0
DWIDTH 7 0
BBX 7 16 0 -4
BITMAP
00
00
00
00
00
02
0A
6A
6A
0A
02
00
00
00
00
00
ENDCHAR
STARTCHAR 0xE021
ENCODING 57377
SWIDTH 5040 0
DWIDTH 7 0
BBX 7 16 0 -4
BITMAP
00
00
00
00
00
00
02
1A
1A
02
00
00
00
00
00
00
ENDCHAR
STARTCHAR 0xE022
ENCODING 57378
SWIDTH 5040 0
DWIDTH 7 0
BBX 7 16 0 -4
BITMAP
00
00
00
00
00
18
3E
F8
F8
3E
18
00
00
00
00
00
ENDCHAR
STARTCHAR 0xE023
ENCODING 57379
SWIDTH 5040 0
DWIDTH 7 0
BBX 7 16 0 -4
BITMAP
00
00
00
00
00
04
0C
3A
34
08
14
00
00
00
00
00
ENDCHAR
STARTCHAR 0xE024
ENCODING 57380
SWIDTH 5040 0
DWIDTH 7 0
BBX 7 16 0 -4
BITMAP
00
00
00
00
00
02
06
1E
1E
06
02
00
00
00
00
00
ENDCHAR
STARTCHAR 0xE025
ENCODING 57381
SWIDTH 5040 0
DWIDTH 7 0
BBX 7 16 0 -4
BITMAP
00
00
00
00
00
08
18
7A
7A
18
08
00
00
00
00
00
ENDCHAR
STARTCHAR 0xE026
ENCODING 57382
SWIDTH 5040 0
DWIDTH 7 0
BBX 7 16 0 -4
BITMAP
00
00
00
00
00
2A
00
3E
3E
00
2A
00
00
00
00
00
ENDCHAR
STARTCHAR 0xE027
ENCODING 57383
SWIDTH 5040 0
DWIDTH 7 0
BBX 7 16 0 -4
BITMAP
00
00
00
00
00
72
3E
26
64
7C
4E
00
00
00
00
00
ENDCHAR
STARTCHAR 0xE028
ENCODING 57384
SWIDTH 5040 0
DWIDTH 7 0
BBX 7 16 0 -4
BITMAP
00
00
00
00
38
7C
EE
EE
E2
FE
7C
38
00
00
00
00
ENDCHAR
STARTCHAR 0xE029
ENCODING 57385
SWIDTH 5040 0
DWIDTH 7 0
BBX 7 16 0 -4
BITMAP
00
00
00
00
00
7C
EE
EE
E2
FE
FE
7C
00
00
00
00
ENDCHAR
STARTCHAR 0xE02A
ENCODING 57386
SWIDTH 5040 0
DWIDTH 7 0
BBX 7 16 0 -4
BITMAP
00
00
00
00
00
FE
BA
D6
EE
FE
FE
FE
00
00
00
00
ENDCHAR
STARTCHAR 0xE02B
ENCODING 57387
SWIDTH 5040 0
DWIDTH 7 0
BBX 7 16 0 -4
BITMAP
00
00
00
00
00
FE
C6
AA
92
82
82
FE
00
00
00
00
ENDCHAR
STARTCHAR 0xE02C
ENCODING 57388
SWIDTH 5040 0
DWIDTH 7 0
BBX 7 16 0 -4
BITMAP
00
00
00
00
00
FE
BA
D6
EE
FE
FE
00
00
00
00
00
ENDCHAR
STARTCHAR 0xE02D
ENCODING 57389
SWIDTH 5040 0
DWIDTH 7 0
BBX 7 16 0 -4
BITMAP
00
00
00
00
00
FE
C6
AA
92
82
FE
00
00
00
00
00
ENDCHAR
STARTCHAR 0xE02E
ENCODING 57390
SWIDTH 5040 0
DWIDTH 7 0
BBX 7 16 0 -4
BITMAP
00
00
00
00
AA
00
FE
FE
FE
FE
00
AA
00
00
00
00
ENDCHAR
STARTCHAR 0xE02F
ENCODING 57391
SWIDTH 5040 0
DWIDTH 7 0
BBX 7 16 0 -4
BITMAP
00
00
00
00
08
0A
2A
2A
2C
18
08
08
00
00
00
00
ENDCHAR
STARTCHAR 0xE030
ENCODING 57392
SWIDTH 5040 0
DWIDTH 7 0
BBX 7 16 0 -4
BITMAP
00
00
00
00
00
FE
BA
D6
EE
D6
BA
FE
00
00
00
00
ENDCHAR
STARTCHAR 0xE031
ENCODING 57393
SWIDTH 5040 0
DWIDTH 7 0
BBX 7 16 0 -4
BITMAP
00
00
00
00
D6
C6
38
BA
BA
38
C6
D6
00
00
00
00
ENDCHAR
STARTCHAR 0xE032
ENCODING 57394
SWIDTH 5040 0
DWIDTH 7 0
BBX 7 16 0 -4
BITMAP
00
00
00
00
20
06
8E
14
28
D0
E0
E0
00
00
00
00
ENDCHAR
STARTCHAR 0xE033
ENCODING 57395
SWIDTH 5040 0
DWIDTH 7 0
BBX 7 16 0 -4
BITMAP
00
00
00
00
00
88
FC
FE
FE
7C
08
00
00
00
00
00
ENDCHAR
STARTCHAR 0xE034
ENCODING 57396
SWIDTH 5040 0
DWIDTH 7 0
BBX 7 16 0 -4
BITMAP
00
00
00
00
00
22
7E
FE
FE
7C
20
00
00
00
00
00
ENDCHAR
STARTCHAR 0xE035
ENCODING 57397
SWIDTH 5040 0
DWIDTH 7 0
BBX 7 16 0 -4
BITMAP
00
00
00
00
00
20
7C
FE
FE
7E
22
00
00
00
00
00
ENDCHAR
STARTCHAR 0xE036
ENCODING 57398
SWIDTH 5040 0
DWIDTH 7 0
BBX 7 16 0 -4
BITMAP
00
00
00
00
00
08
7C
FE
FE
FC
88
00
00
00
00
00
ENDCHAR
STARTCHAR 0xE037
ENCODING 57399
SWIDTH 5040 0
DWIDTH 7 0
BBX 7 16 0 -4
BITMAP
00
00
00
00
00
24
2E
24
24
24
74
24
00
00
00
00
ENDCHAR
STARTCHAR 0xE038
ENCODING 57400
SWIDTH 5040 0
DWIDTH 7 0
BBX 7 16 0 -4
BITMAP
00
00
00
00
00
08
FC
FE
FE
FC
08
00
00
00
00
00
ENDCHAR
STARTCHAR 0xE039
ENCODING 57401
SWIDTH 5040 0
DWIDTH 7 0
BBX 7 16 0 -4
BITMAP
00
00
00
00
00
20
7E
FE
FE
7E
20
00
00
00
00
00
ENDCHAR
STARTCHAR 0xE03A
ENCODING 57402
SWIDTH 5040 0
DWIDTH 7 0
BBX 7 16 0 -4
BITMAP
00
00
00
00
00
3C
3C
3C
3C
7E
3C
18
00
00
00
00
ENDCHAR
STARTCHAR 0xE03B
ENCODING 57403
SWIDTH 5040 0
DWIDTH 7 0
BBX 7 16 0 -4
BITMAP
00
00
00
00
00
18
3C
7E
3C
3C
3C
3C
00
00
00
00
ENDCHAR
STARTCHAR 0xE03C
ENCODING 57404
SWIDTH 5040 0
DWIDTH 7 0
BBX 7 16 0 -4
BITMAP
00
00
00
00
00
18
3C
7E
3C
3C
3C
78
00
00
00
00
ENDCHAR
STARTCHAR 0xE03D
ENCODING 57405
SWIDTH 5040 0
DWIDTH 7 0
BBX 7 16 0 -4
BITMAP
00
00
00
00
00
78
3C
3C
3C
7E
3C
18
00
00
00
00
ENDCHAR
STARTCHAR 0xE03E
ENCODING 57406
SWIDTH 5040 0
DWIDTH 7 0
BBX 7 16 0 -4
BITMAP
00
00
00
00
00
18
3C
7E
3C
3C
3C
1E
00
00
00
00
ENDCHAR
STARTCHAR 0xE03F
ENCODING 57407
SWIDTH 5040 0
DWIDTH 7 0
BBX 7 16 0 -4
BITMAP
00
00
00
00
00
1E
3C
3C
3C
7E
3C
18
00
00
00
00
ENDCHAR
STARTCHAR 0xE040
ENCODING 57408
SWIDTH 5040 0
DWIDTH 7 0
BBX 7 16 0 -4
BITMAP
00
00
00
00
7C
82
82
82
82
EE
EE
6C
00
00
00
00
ENDCHAR
STARTCHAR 0xE041
ENCODING 57409
SWIDTH 5040 0
DWIDTH 7 0
BBX 7 16 0 -4
BITMAP
00
00
00
00
18
18
18
5A
42
3C
18
3C
00
00
00
00
ENDCHAR
STARTCHAR 0xE042
ENCODING 57410
SWIDTH 5040 0
DWIDTH 7 0
BBX 7 16 0 -4
BITMAP
00
00
00
00
00
22
26
2E
2E
26
22
00
00
00
00
00
ENDCHAR
STARTCHAR 0xE043
ENCODING 57411
SWIDTH 5040 0
DWIDTH 7 0
BBX 7 16 0 -4
BITMAP
00
00
00
00
00
12
36
7E
7E
36
12
00
00
00
00
00
ENDCHAR
STARTCHAR 0xE044
ENCODING 57412
SWIDTH 5040 0
DWIDTH 7 0
BBX 7 16 0 -4
BITMAP
00
00
00
00
00
3C
7E
7E
7E
7E
3C
00
00
00
00
00
ENDCHAR
STARTCHAR 0xE045
ENCODING 57413
SWIDTH 5040 0
DWIDTH 7 0
BBX 7 16 0 -4
BITMAP
00
00
00
00
00
7E
7E
7E
7E
7E
7E
00
00
00
00
00
ENDCHAR
STARTCHAR 0xE046
ENCODING 57414
SWIDTH 5040 0
DWIDTH 7 0
BBX 7 16 0 -4
BITMAP
00
00
00
00
00
08
0C
0E
0E
0C
08
00
00
00
00
00
ENDCHAR
STARTCHAR 0xE047
ENCODING 57415
SWIDTH 5040 0
DWIDTH 7 0
BBX 7 16 0 -4
BITMAP
00
00
00
00
00
36
36
36
36
36
36
00
00
00
00
00
ENDCHAR
STARTCHAR 0xE048
ENCODING 57416
SWIDTH 5040 0
DWIDTH 7 0
BBX 7 16 0 -4
BITMAP
00
00
00
00
00
48
6C
7E
7E
6C
48
00
00
00
00
00
ENDCHAR
STARTCHAR 0xE049
ENCODING 57417
SWIDTH 5040 0
DWIDTH 7 0
BBX 7 16 0 -4
BITMAP
00
00
00
00
00
22
32
3A
3A
32
22
00
00
00
00
00
ENDCHAR
STARTCHAR 0xE04A
ENCODING 57418
SWIDTH 5040 0
DWIDTH 7 0
BBX 7 16 0 -4
BITMAP
00
00
00
00
3E
3E
22
22
22
66
EE
CC
00
00
00
00
ENDCHAR
STARTCHAR 0xE04B
ENCODING 57419
SWIDTH 5040 0
DWIDTH 7 0
BBX 7 16 0 -4
BITMAP
00
00
00
00
08
18
7A
74
68
10
28
48
00
00
00
00
ENDCHAR
STARTCHAR 0xE04C
ENCODING 57420
SWIDTH 5040 0
DWIDTH 7 0
BBX 7 16 0 -4
BITMAP
00
00
00
00
02
06
1E
1E
1E
1E
06
02
00
00
00
00
ENDCHAR
STARTCHAR 0xE04D
ENCODING 57421
SWIDTH 5040 0
DWIDTH 7 0
BBX 7 16 0 -4
BITMAP
00
00
00
00
08
18
7A
7A
7A
7A
18
08
00
00
00
00
ENDCHAR
STARTCHAR 0xE04E
ENCODING 57422
SWIDTH 5040 0
DWIDTH 7 0
BBX 7 16 0 -4
BITMAP
00
00
00
00
08
3E
22
22
22
22
22
3E
00
00
00
00
ENDCHAR
STARTCHAR 0xE04F
ENCODING 57423
SWIDTH 5040 0
DWIDTH 7 0
BBX 7 16 0 -4
BITMAP
00
00
00
00
08
3E
22
22
2A
2A
22
3E
00
00
00
00
ENDCHAR
STARTCHAR 0xE050
ENCODING 57424
SWIDTH 5040 0
DWIDTH 7 0
BBX 7 16 0 -4
BITMAP
00
00
00
00
08
3E
22
2A
2A
2A
22
3E
00
00
00
00
ENDCHAR
STARTCHAR 0xE051
ENCODING 57425
SWIDTH 5040 0
DWIDTH 7 0
BBX 7 16 0 -4
BITMAP
00
00
00
00
00
00
FC
84
86
84
FC
00
00
00
00
00
ENDCHAR
STARTCHAR 0xE052
ENCODING 57426
SWIDTH 5040 0
DWIDTH 7 0
BBX 7 16 0 -4
BITMAP
00
00
00
00
00
00
FC
84
A6
84
FC
00
00
00
00
00
ENDCHAR
STARTCHAR 0xE053
ENCODING 57427
SWIDTH 5040 0
DWIDTH 7 0
BBX 7 16 0 -4
BITMAP
00
00
00
00
00
00
FC
84
B6
84
FC
00
00
00
00
00
ENDCHAR
STARTCHAR 0xE054
ENCODING 57428
SWIDTH 5040 0
DWIDTH 7 0
BBX 7 16 0 -4
BITMAP
00
00
00
00
FE
FE
C6
C6
C6
C6
FE
FE
00
00
00
00
ENDCHAR
STARTCHAR 0xE055
ENCODING 57429
SWIDTH 5040 0
DWIDTH 7 0
BBX 7 16 0 -4
BITMAP
00
00
00
00
EE
EE
EE
EE
00
D6
D6
D6
00
00
00
00
ENDCHAR
STARTCHAR 0xE056
ENCODING 57430
SWIDTH 5040 0
DWIDTH 7 0
BBX 7 16 0 -4
BITMAP
00
00
00
00
EE
EE
E0
EE
0E
E0
EE
EE
00
00
00
00
ENDCHAR
STARTCHAR 0xE057
ENCODING 57431
SWIDTH 5040 0
DWIDTH 7 0
BBX 7 16 0 -4
BITMAP
00
00
00
00
00
40
FE
40
04
FE
04
00
00
00
00
00
ENDCHAR
STARTCHAR 0xE058
ENCODING 57432
SWIDTH 5040 0
DWIDTH 7 0
BBX 7 16 0 -4
BITMAP
00
00
00
00
EE
EE
EE
EE
E0
EA
E2
EA
00
00
00
00
ENDCHAR
STARTCHAR 0xE059
ENCODING 57433
SWIDTH 5040 0
DWIDTH 7 0
BBX 7 16 0 -4
BITMAP
00
00
00
00
EE
EE
EE
EE
E0
EA
E8
EA
00
00
00
00
ENDCHAR
STARTCHAR 0xE05A
ENCODING 57434
SWIDTH 5040 0
DWIDTH 7 0
BBX 7 16 0 -4
BITMAP
00
00
00
00
D6
D6
00
D6
D6
00
D6
D6
00
00
00
00
ENDCHAR
STARTCHAR 0xE05B
ENCODING 57435
SWIDTH 5040 0
DWIDTH 7 0
BBX 7 16 0 -4
BITMAP
00
00
00
00
FE
FE
FE
FE
00
FE
00
FE
00
00
00
00
ENDCHAR
STARTCHAR 0xE05C
ENCODING 57436
SWIDTH 5040 0
DWIDTH 7 0
BBX 7 16 0 -4
BITMAP
00
00
00
00
FE
FE
FE
FE
00
D6
D6
D6
00
00
00
00
ENDCHAR
STARTCHAR 0xE05D
ENCODING 57437
SWIDTH 5040 0
DWIDTH 7 0
BBX 7 16 0 -4
BITMAP
00
00
00
00
EE
EE
EE
0E
FE
FE
FE
FE
00
00
00
00
ENDCHAR
STARTCHAR 0xE05E
ENCODING 57438
SWIDTH 5040 0
DWIDTH 7 0
BBX 7 16 0 -4
BITMAP
00
00
00
00
EE
EE
E0
EE
EE
E0
EE
EE
00
00
00
00
ENDCHAR
STARTCHAR 0xE05F
ENCODING 57439
SWIDTH 5040 0
DWIDTH 7 0
BBX 7 16 0 -4
BITMAP
00
00
00
00
FE
FE
FE
FE
FE
FE
FE
FE
00
00
00
00
ENDCHAR
ENDFONT
